<svg width="800px" height="800px" viewBox="-20 0 190 190" xmlns="http://www.w3.org/2000/svg">
    <rect x="-20" y="0" width="190" height="190" fill="#eaf9eb"/>
    <path fill="#1d1d1f" d="M107.313 137.934C102.663 137.934 49.191 137.043 43.232 136.916C36.437 136.77 34.092 132.928 34.092 126.733C34.092 125.828 34.133 123.406 34.198 120.111L68.113 119.778L69.619 127.307L82.178 126.341L82.849 119.633L115.876 119.309C115.908 123.593 115.918 126.858 115.892 128.063C115.747 134.75 113.08 137.934 107.313 137.934ZM35.109 79.8911L115.439 80.9101C115.45 80.9651 115.694 99.379 115.826 113.299L34.286 115.89C34.58 101.921 35.109 79.8911 35.109 79.8911ZM90.303 76.6601V72.7641L59.673 71.7451V75.9951L51.505 75.8181C51.505 75.8181 51.321 72.7851 51.264 70.3171C51.159 65.8231 53.862 63.7291 58.993 63.5551C61.428 63.4731 87.826 64.5211 90.874 64.5211C96.397 64.5211 98.575 66.6961 98.603 70.3171C98.623 72.8251 98.416 76.8361 98.416 76.8361L90.303 76.6601Z"/>
</svg>